<?xml version="1.0" encoding="UTF-8" standalone="no"?>
<!DOCTYPE svg PUBLIC "-//W3C//DTD SVG 1.1//EN"
 "http://www.w3.org/Graphics/SVG/1.1/DTD/svg11.dtd">
<!-- Generated by graphviz version 2.47.0 (20210316.0004)
 -->
<!-- Title: dependencies Pages: 1 -->
<svg width="907pt" height="284pt"
 viewBox="0.00 0.00 907.00 284.00" xmlns="http://www.w3.org/2000/svg" xmlns:xlink="http://www.w3.org/1999/xlink">
<g id="graph0" class="graph" transform="scale(1 1) rotate(0) translate(4 280)">
<title>dependencies</title>
<polygon fill="white" stroke="transparent" points="-4,4 -4,-280 903,-280 903,4 -4,4"/>
<text text-anchor="start" x="428.51" y="-42.4" font-family="sans-serif" font-weight="bold" font-size="14.00">Legend</text>
<polygon fill="#ffffb3" stroke="transparent" points="215.5,-10 215.5,-30 235.5,-30 235.5,-10 215.5,-10"/>
<text text-anchor="start" x="239.13" y="-15.4" font-family="sans-serif" font-size="14.00"> &#160;Declarations</text>
<polygon fill="#8dd3c7" stroke="transparent" points="328.5,-10 328.5,-30 348.5,-30 348.5,-10 328.5,-10"/>
<text text-anchor="start" x="352.23" y="-15.4" font-family="sans-serif" font-size="14.00"> &#160;Module</text>
<polygon fill="#80b1d3" stroke="transparent" points="414.5,-10 414.5,-30 434.5,-30 434.5,-10 414.5,-10"/>
<text text-anchor="start" x="438.28" y="-15.4" font-family="sans-serif" font-size="14.00"> &#160;Bootstrap</text>
<polygon fill="#fdb462" stroke="transparent" points="511.5,-10 511.5,-30 531.5,-30 531.5,-10 511.5,-10"/>
<text text-anchor="start" x="535.17" y="-15.4" font-family="sans-serif" font-size="14.00"> &#160;Providers</text>
<polygon fill="#fb8072" stroke="transparent" points="607.5,-10 607.5,-30 627.5,-30 627.5,-10 607.5,-10"/>
<text text-anchor="start" x="631.23" y="-15.4" font-family="sans-serif" font-size="14.00"> &#160;Exports</text>
<g id="clust1" class="cluster">
<title>cluster_CoreModule</title>
<polygon fill="none" stroke="black" stroke-dasharray="1,5" points="8,-70 8,-268 891,-268 891,-70 8,-70"/>
</g>
<g id="clust7" class="cluster">
<title>cluster_CoreModule_exports</title>
<polygon fill="none" stroke="black" points="16,-208 16,-260 883,-260 883,-208 16,-208"/>
</g>
<g id="clust2" class="cluster">
<title>cluster_CoreModule_declarations</title>
<polygon fill="none" stroke="black" points="242,-78 242,-130 638,-130 638,-78 242,-78"/>
</g>
<!-- FooterComponent -->
<g id="node1" class="node">
<title>FooterComponent</title>
<polygon fill="#ffffb3" stroke="black" points="629.88,-122 512.12,-122 512.12,-86 629.88,-86 629.88,-122"/>
<text text-anchor="middle" x="571" y="-99.8" font-family="Times,serif" font-size="14.00">FooterComponent</text>
</g>
<!-- CoreModule -->
<g id="node4" class="node">
<title>CoreModule</title>
<polygon fill="#8dd3c7" stroke="black" points="476.26,-187 473.26,-191 452.26,-191 449.26,-187 389.74,-187 389.74,-151 476.26,-151 476.26,-187"/>
<text text-anchor="middle" x="433" y="-164.8" font-family="Times,serif" font-size="14.00">CoreModule</text>
</g>
<!-- FooterComponent&#45;&gt;CoreModule -->
<g id="edge1" class="edge">
<title>FooterComponent&#45;&gt;CoreModule</title>
<path fill="none" stroke="black" d="M552.37,-122.01C552.37,-138.05 552.37,-159 552.37,-159 552.37,-159 486.43,-159 486.43,-159"/>
<polygon fill="black" stroke="black" points="486.43,-155.5 476.43,-159 486.43,-162.5 486.43,-155.5"/>
</g>
<!-- HeaderComponent -->
<g id="node2" class="node">
<title>HeaderComponent</title>
<polygon fill="#ffffb3" stroke="black" points="493.74,-122 372.26,-122 372.26,-86 493.74,-86 493.74,-122"/>
<text text-anchor="middle" x="433" y="-99.8" font-family="Times,serif" font-size="14.00">HeaderComponent</text>
</g>
<!-- HeaderComponent&#45;&gt;CoreModule -->
<g id="edge2" class="edge">
<title>HeaderComponent&#45;&gt;CoreModule</title>
<path fill="none" stroke="black" d="M433,-122.11C433,-122.11 433,-140.99 433,-140.99"/>
<polygon fill="black" stroke="black" points="429.5,-140.99 433,-150.99 436.5,-140.99 429.5,-140.99"/>
</g>
<!-- NavComponent -->
<g id="node3" class="node">
<title>NavComponent</title>
<polygon fill="#ffffb3" stroke="black" points="354.15,-122 249.85,-122 249.85,-86 354.15,-86 354.15,-122"/>
<text text-anchor="middle" x="302" y="-99.8" font-family="Times,serif" font-size="14.00">NavComponent</text>
</g>
<!-- NavComponent&#45;&gt;CoreModule -->
<g id="edge3" class="edge">
<title>NavComponent&#45;&gt;CoreModule</title>
<path fill="none" stroke="black" d="M306.62,-122.01C306.62,-138.05 306.62,-159 306.62,-159 306.62,-159 379.51,-159 379.51,-159"/>
<polygon fill="black" stroke="black" points="379.51,-162.5 389.51,-159 379.51,-155.5 379.51,-162.5"/>
</g>
<!-- FooterComponent  -->
<g id="node5" class="node">
<title>FooterComponent </title>
<polygon fill="#fb8072" stroke="black" points="874.88,-252 753.12,-252 753.12,-216 874.88,-216 874.88,-252"/>
<text text-anchor="middle" x="814" y="-229.8" font-family="Times,serif" font-size="14.00">FooterComponent </text>
</g>
<!-- CoreModule&#45;&gt;FooterComponent  -->
<g id="edge4" class="edge">
<title>CoreModule&#45;&gt;FooterComponent </title>
<path fill="none" stroke="black" stroke-dasharray="5,2" d="M476.33,-166C576.19,-166 814,-166 814,-166 814,-166 814,-205.78 814,-205.78"/>
<polygon fill="black" stroke="black" points="810.5,-205.78 814,-215.78 817.5,-205.78 810.5,-205.78"/>
</g>
<!-- HeaderComponent  -->
<g id="node6" class="node">
<title>HeaderComponent </title>
<polygon fill="#fb8072" stroke="black" points="735.74,-252 610.26,-252 610.26,-216 735.74,-216 735.74,-252"/>
<text text-anchor="middle" x="673" y="-229.8" font-family="Times,serif" font-size="14.00">HeaderComponent </text>
</g>
<!-- CoreModule&#45;&gt;HeaderComponent  -->
<g id="edge5" class="edge">
<title>CoreModule&#45;&gt;HeaderComponent </title>
<path fill="none" stroke="black" stroke-dasharray="5,2" d="M476.41,-173C531.7,-173 620.16,-173 620.16,-173 620.16,-173 620.16,-205.7 620.16,-205.7"/>
<polygon fill="black" stroke="black" points="616.66,-205.7 620.16,-215.7 623.66,-205.7 616.66,-205.7"/>
</g>
<!-- IconsModule  -->
<g id="node7" class="node">
<title>IconsModule </title>
<polygon fill="#fb8072" stroke="black" points="592.87,-252 499.13,-252 499.13,-216 592.87,-216 592.87,-252"/>
<text text-anchor="middle" x="546" y="-229.8" font-family="Times,serif" font-size="14.00">IconsModule </text>
</g>
<!-- CoreModule&#45;&gt;IconsModule  -->
<g id="edge6" class="edge">
<title>CoreModule&#45;&gt;IconsModule </title>
<path fill="none" stroke="black" stroke-dasharray="5,2" d="M476.54,-180C492.02,-180 505.69,-180 505.69,-180 505.69,-180 505.69,-205.72 505.69,-205.72"/>
<polygon fill="black" stroke="black" points="502.19,-205.72 505.69,-215.72 509.19,-205.72 502.19,-205.72"/>
</g>
<!-- LoginModule  -->
<g id="node8" class="node">
<title>LoginModule </title>
<polygon fill="#fb8072" stroke="black" points="481.49,-252 384.51,-252 384.51,-216 481.49,-216 481.49,-252"/>
<text text-anchor="middle" x="433" y="-229.8" font-family="Times,serif" font-size="14.00">LoginModule </text>
</g>
<!-- CoreModule&#45;&gt;LoginModule  -->
<g id="edge7" class="edge">
<title>CoreModule&#45;&gt;LoginModule </title>
<path fill="none" stroke="black" stroke-dasharray="5,2" d="M433,-187.11C433,-187.11 433,-205.99 433,-205.99"/>
<polygon fill="black" stroke="black" points="429.5,-205.99 433,-215.99 436.5,-205.99 429.5,-205.99"/>
</g>
<!-- NavComponent  -->
<g id="node9" class="node">
<title>NavComponent </title>
<polygon fill="#fb8072" stroke="black" points="367.15,-252 258.85,-252 258.85,-216 367.15,-216 367.15,-252"/>
<text text-anchor="middle" x="313" y="-229.8" font-family="Times,serif" font-size="14.00">NavComponent </text>
</g>
<!-- CoreModule&#45;&gt;NavComponent  -->
<g id="edge8" class="edge">
<title>CoreModule&#45;&gt;NavComponent </title>
<path fill="none" stroke="black" stroke-dasharray="5,2" d="M389.69,-180C374.29,-180 360.7,-180 360.7,-180 360.7,-180 360.7,-205.72 360.7,-205.72"/>
<polygon fill="black" stroke="black" points="357.2,-205.72 360.7,-215.72 364.2,-205.72 357.2,-205.72"/>
</g>
<!-- TemplatesModule  -->
<g id="node10" class="node">
<title>TemplatesModule </title>
<polygon fill="#fb8072" stroke="black" points="240.86,-252 119.14,-252 119.14,-216 240.86,-216 240.86,-252"/>
<text text-anchor="middle" x="180" y="-229.8" font-family="Times,serif" font-size="14.00">TemplatesModule </text>
</g>
<!-- CoreModule&#45;&gt;TemplatesModule  -->
<g id="edge9" class="edge">
<title>CoreModule&#45;&gt;TemplatesModule </title>
<path fill="none" stroke="black" stroke-dasharray="5,2" d="M389.51,-173C317.17,-173 180,-173 180,-173 180,-173 180,-205.7 180,-205.7"/>
<polygon fill="black" stroke="black" points="176.5,-205.7 180,-215.7 183.5,-205.7 176.5,-205.7"/>
</g>
<!-- UiModule  -->
<g id="node11" class="node">
<title>UiModule </title>
<polygon fill="#fb8072" stroke="black" points="101.55,-252 24.45,-252 24.45,-216 101.55,-216 101.55,-252"/>
<text text-anchor="middle" x="63" y="-229.8" font-family="Times,serif" font-size="14.00">UiModule </text>
</g>
<!-- CoreModule&#45;&gt;UiModule  -->
<g id="edge10" class="edge">
<title>CoreModule&#45;&gt;UiModule </title>
<path fill="none" stroke="black" stroke-dasharray="5,2" d="M389.47,-166C291.66,-166 63,-166 63,-166 63,-166 63,-205.78 63,-205.78"/>
<polygon fill="black" stroke="black" points="59.5,-205.78 63,-215.78 66.5,-205.78 59.5,-205.78"/>
</g>
</g>
</svg>
