<?xml version="1.0" encoding="UTF-8" standalone="no"?>
<!DOCTYPE svg PUBLIC "-//W3C//DTD SVG 1.1//EN"
 "http://www.w3.org/Graphics/SVG/1.1/DTD/svg11.dtd">
<!-- Generated by graphviz version 2.47.0 (20210316.0004)
 -->
<!-- Title: dependencies Pages: 1 -->
<svg width="504pt" height="284pt"
 viewBox="0.00 0.00 504.00 284.00" xmlns="http://www.w3.org/2000/svg" xmlns:xlink="http://www.w3.org/1999/xlink">
<g id="graph0" class="graph" transform="scale(1 1) rotate(0) translate(4 280)">
<title>dependencies</title>
<polygon fill="white" stroke="transparent" points="-4,4 -4,-280 500,-280 500,4 -4,4"/>
<text text-anchor="start" x="227.01" y="-42.4" font-family="sans-serif" font-weight="bold" font-size="14.00">Legend</text>
<polygon fill="#ffffb3" stroke="transparent" points="14,-10 14,-30 34,-30 34,-10 14,-10"/>
<text text-anchor="start" x="37.63" y="-15.4" font-family="sans-serif" font-size="14.00"> &#160;Declarations</text>
<polygon fill="#8dd3c7" stroke="transparent" points="127,-10 127,-30 147,-30 147,-10 127,-10"/>
<text text-anchor="start" x="150.73" y="-15.4" font-family="sans-serif" font-size="14.00"> &#160;Module</text>
<polygon fill="#80b1d3" stroke="transparent" points="213,-10 213,-30 233,-30 233,-10 213,-10"/>
<text text-anchor="start" x="236.78" y="-15.4" font-family="sans-serif" font-size="14.00"> &#160;Bootstrap</text>
<polygon fill="#fdb462" stroke="transparent" points="310,-10 310,-30 330,-30 330,-10 310,-10"/>
<text text-anchor="start" x="333.67" y="-15.4" font-family="sans-serif" font-size="14.00"> &#160;Providers</text>
<polygon fill="#fb8072" stroke="transparent" points="406,-10 406,-30 426,-30 426,-10 406,-10"/>
<text text-anchor="start" x="429.73" y="-15.4" font-family="sans-serif" font-size="14.00"> &#160;Exports</text>
<g id="clust1" class="cluster">
<title>cluster_TemplatesModule</title>
<polygon fill="none" stroke="black" stroke-dasharray="1,5" points="30.5,-70 30.5,-268 465.5,-268 465.5,-70 30.5,-70"/>
</g>
<g id="clust6" class="cluster">
<title>cluster_TemplatesModule_exports</title>
<polygon fill="none" stroke="black" points="38.5,-208 38.5,-260 457.5,-260 457.5,-208 38.5,-208"/>
</g>
<g id="clust2" class="cluster">
<title>cluster_TemplatesModule_declarations</title>
<polygon fill="none" stroke="black" points="42.5,-78 42.5,-130 454.5,-130 454.5,-78 42.5,-78"/>
</g>
<!-- TemplateContainerComponent -->
<g id="node1" class="node">
<title>TemplateContainerComponent</title>
<polygon fill="#ffffb3" stroke="black" points="446.41,-122 256.59,-122 256.59,-86 446.41,-86 446.41,-122"/>
<text text-anchor="middle" x="351.5" y="-99.8" font-family="Times,serif" font-size="14.00">TemplateContainerComponent</text>
</g>
<!-- TemplatesModule -->
<g id="node3" class="node">
<title>TemplatesModule</title>
<polygon fill="#8dd3c7" stroke="black" points="204.36,-187 201.36,-191 180.36,-191 177.36,-187 86.64,-187 86.64,-151 204.36,-151 204.36,-187"/>
<text text-anchor="middle" x="145.5" y="-164.8" font-family="Times,serif" font-size="14.00">TemplatesModule</text>
</g>
<!-- TemplateContainerComponent&#45;&gt;TemplatesModule -->
<g id="edge1" class="edge">
<title>TemplateContainerComponent&#45;&gt;TemplatesModule</title>
<path fill="none" stroke="black" d="M383.15,-122.02C383.15,-139.37 383.15,-163 383.15,-163 383.15,-163 214.55,-163 214.55,-163"/>
<polygon fill="black" stroke="black" points="214.55,-159.5 204.55,-163 214.55,-166.5 214.55,-159.5"/>
</g>
<!-- TemplateFullwidthComponent -->
<g id="node2" class="node">
<title>TemplateFullwidthComponent</title>
<polygon fill="#ffffb3" stroke="black" points="238.65,-122 50.35,-122 50.35,-86 238.65,-86 238.65,-122"/>
<text text-anchor="middle" x="144.5" y="-99.8" font-family="Times,serif" font-size="14.00">TemplateFullwidthComponent</text>
</g>
<!-- TemplateFullwidthComponent&#45;&gt;TemplatesModule -->
<g id="edge2" class="edge">
<title>TemplateFullwidthComponent&#45;&gt;TemplatesModule</title>
<path fill="none" stroke="black" d="M145.5,-122.11C145.5,-122.11 145.5,-140.99 145.5,-140.99"/>
<polygon fill="black" stroke="black" points="142,-140.99 145.5,-150.99 149,-140.99 142,-140.99"/>
</g>
<!-- TemplateContainerComponent  -->
<g id="node4" class="node">
<title>TemplateContainerComponent </title>
<polygon fill="#fb8072" stroke="black" points="449.91,-252 257.09,-252 257.09,-216 449.91,-216 449.91,-252"/>
<text text-anchor="middle" x="353.5" y="-229.8" font-family="Times,serif" font-size="14.00">TemplateContainerComponent </text>
</g>
<!-- TemplatesModule&#45;&gt;TemplateContainerComponent  -->
<g id="edge3" class="edge">
<title>TemplatesModule&#45;&gt;TemplateContainerComponent </title>
<path fill="none" stroke="black" stroke-dasharray="5,2" d="M204.61,-175C255.26,-175 320.1,-175 320.1,-175 320.1,-175 320.1,-205.98 320.1,-205.98"/>
<polygon fill="black" stroke="black" points="316.6,-205.98 320.1,-215.98 323.6,-205.98 316.6,-205.98"/>
</g>
<!-- TemplateFullwidthComponent  -->
<g id="node5" class="node">
<title>TemplateFullwidthComponent </title>
<polygon fill="#fb8072" stroke="black" points="238.65,-252 46.35,-252 46.35,-216 238.65,-216 238.65,-252"/>
<text text-anchor="middle" x="142.5" y="-229.8" font-family="Times,serif" font-size="14.00">TemplateFullwidthComponent </text>
</g>
<!-- TemplatesModule&#45;&gt;TemplateFullwidthComponent  -->
<g id="edge4" class="edge">
<title>TemplatesModule&#45;&gt;TemplateFullwidthComponent </title>
<path fill="none" stroke="black" stroke-dasharray="5,2" d="M145.5,-187.11C145.5,-187.11 145.5,-205.99 145.5,-205.99"/>
<polygon fill="black" stroke="black" points="142,-205.99 145.5,-215.99 149,-205.99 142,-205.99"/>
</g>
</g>
</svg>
