<?xml version="1.0" encoding="UTF-8" standalone="no"?>
<!DOCTYPE svg PUBLIC "-//W3C//DTD SVG 1.1//EN"
 "http://www.w3.org/Graphics/SVG/1.1/DTD/svg11.dtd">
<!-- Generated by graphviz version 2.47.0 (20210316.0004)
 -->
<!-- Title: dependencies Pages: 1 -->
<svg width="786pt" height="284pt"
 viewBox="0.00 0.00 786.00 284.00" xmlns="http://www.w3.org/2000/svg" xmlns:xlink="http://www.w3.org/1999/xlink">
<g id="graph0" class="graph" transform="scale(1 1) rotate(0) translate(4 280)">
<title>dependencies</title>
<polygon fill="white" stroke="transparent" points="-4,4 -4,-280 782,-280 782,4 -4,4"/>
<text text-anchor="start" x="368.01" y="-42.4" font-family="sans-serif" font-weight="bold" font-size="14.00">Legend</text>
<polygon fill="#ffffb3" stroke="transparent" points="155,-10 155,-30 175,-30 175,-10 155,-10"/>
<text text-anchor="start" x="178.63" y="-15.4" font-family="sans-serif" font-size="14.00"> &#160;Declarations</text>
<polygon fill="#8dd3c7" stroke="transparent" points="268,-10 268,-30 288,-30 288,-10 268,-10"/>
<text text-anchor="start" x="291.73" y="-15.4" font-family="sans-serif" font-size="14.00"> &#160;Module</text>
<polygon fill="#80b1d3" stroke="transparent" points="354,-10 354,-30 374,-30 374,-10 354,-10"/>
<text text-anchor="start" x="377.78" y="-15.4" font-family="sans-serif" font-size="14.00"> &#160;Bootstrap</text>
<polygon fill="#fdb462" stroke="transparent" points="451,-10 451,-30 471,-30 471,-10 451,-10"/>
<text text-anchor="start" x="474.67" y="-15.4" font-family="sans-serif" font-size="14.00"> &#160;Providers</text>
<polygon fill="#fb8072" stroke="transparent" points="547,-10 547,-30 567,-30 567,-10 547,-10"/>
<text text-anchor="start" x="570.73" y="-15.4" font-family="sans-serif" font-size="14.00"> &#160;Exports</text>
<g id="clust1" class="cluster">
<title>cluster_SharedModule</title>
<polygon fill="none" stroke="black" stroke-dasharray="1,5" points="8,-70 8,-268 770,-268 770,-70 8,-70"/>
</g>
<g id="clust8" class="cluster">
<title>cluster_SharedModule_exports</title>
<polygon fill="none" stroke="black" points="16,-208 16,-260 762,-260 762,-208 16,-208"/>
</g>
<g id="clust2" class="cluster">
<title>cluster_SharedModule_declarations</title>
<polygon fill="none" stroke="black" points="162,-78 162,-130 644,-130 644,-78 162,-78"/>
</g>
<!-- BtnComponent -->
<g id="node1" class="node">
<title>BtnComponent</title>
<polygon fill="#ffffb3" stroke="black" points="635.56,-122 534.44,-122 534.44,-86 635.56,-86 635.56,-122"/>
<text text-anchor="middle" x="585" y="-99.8" font-family="Times,serif" font-size="14.00">BtnComponent</text>
</g>
<!-- SharedModule -->
<g id="node5" class="node">
<title>SharedModule</title>
<polygon fill="#8dd3c7" stroke="black" points="448.42,-187 445.42,-191 424.42,-191 421.42,-187 349.58,-187 349.58,-151 448.42,-151 448.42,-187"/>
<text text-anchor="middle" x="399" y="-164.8" font-family="Times,serif" font-size="14.00">SharedModule</text>
</g>
<!-- BtnComponent&#45;&gt;SharedModule -->
<g id="edge1" class="edge">
<title>BtnComponent&#45;&gt;SharedModule</title>
<path fill="none" stroke="black" d="M568.44,-122.03C568.44,-138.4 568.44,-160 568.44,-160 568.44,-160 458.46,-160 458.46,-160"/>
<polygon fill="black" stroke="black" points="458.46,-156.5 448.46,-160 458.46,-163.5 458.46,-156.5"/>
</g>
<!-- StateDirective -->
<g id="node2" class="node">
<title>StateDirective</title>
<polygon fill="#ffffb3" stroke="black" points="516.08,-122 419.92,-122 419.92,-86 516.08,-86 516.08,-122"/>
<text text-anchor="middle" x="468" y="-99.8" font-family="Times,serif" font-size="14.00">StateDirective</text>
</g>
<!-- StateDirective&#45;&gt;SharedModule -->
<g id="edge2" class="edge">
<title>StateDirective&#45;&gt;SharedModule</title>
<path fill="none" stroke="black" d="M434.09,-122.11C434.09,-122.11 434.09,-140.99 434.09,-140.99"/>
<polygon fill="black" stroke="black" points="430.59,-140.99 434.09,-150.99 437.59,-140.99 430.59,-140.99"/>
</g>
<!-- TableLightComponent -->
<g id="node3" class="node">
<title>TableLightComponent</title>
<polygon fill="#ffffb3" stroke="black" points="401.54,-122 258.46,-122 258.46,-86 401.54,-86 401.54,-122"/>
<text text-anchor="middle" x="330" y="-99.8" font-family="Times,serif" font-size="14.00">TableLightComponent</text>
</g>
<!-- TableLightComponent&#45;&gt;SharedModule -->
<g id="edge3" class="edge">
<title>TableLightComponent&#45;&gt;SharedModule</title>
<path fill="none" stroke="black" d="M375.78,-122.11C375.78,-122.11 375.78,-140.99 375.78,-140.99"/>
<polygon fill="black" stroke="black" points="372.28,-140.99 375.78,-150.99 379.28,-140.99 372.28,-140.99"/>
</g>
<!-- TotalPipe -->
<g id="node4" class="node">
<title>TotalPipe</title>
<polygon fill="#ffffb3" stroke="black" points="240.44,-122 169.56,-122 169.56,-86 240.44,-86 240.44,-122"/>
<text text-anchor="middle" x="205" y="-99.8" font-family="Times,serif" font-size="14.00">TotalPipe</text>
</g>
<!-- TotalPipe&#45;&gt;SharedModule -->
<g id="edge4" class="edge">
<title>TotalPipe&#45;&gt;SharedModule</title>
<path fill="none" stroke="black" d="M215.05,-122.03C215.05,-138.4 215.05,-160 215.05,-160 215.05,-160 339.7,-160 339.7,-160"/>
<polygon fill="black" stroke="black" points="339.7,-163.5 349.7,-160 339.7,-156.5 339.7,-163.5"/>
</g>
<!-- BtnComponent  -->
<g id="node6" class="node">
<title>BtnComponent </title>
<polygon fill="#fb8072" stroke="black" points="753.56,-252 648.44,-252 648.44,-216 753.56,-216 753.56,-252"/>
<text text-anchor="middle" x="701" y="-229.8" font-family="Times,serif" font-size="14.00">BtnComponent </text>
</g>
<!-- SharedModule&#45;&gt;BtnComponent  -->
<g id="edge5" class="edge">
<title>SharedModule&#45;&gt;BtnComponent </title>
<path fill="none" stroke="black" stroke-dasharray="5,2" d="M448.53,-169C534.21,-169 701,-169 701,-169 701,-169 701,-205.89 701,-205.89"/>
<polygon fill="black" stroke="black" points="697.5,-205.89 701,-215.89 704.5,-205.89 697.5,-205.89"/>
</g>
<!-- IconsModule  -->
<g id="node7" class="node">
<title>IconsModule </title>
<polygon fill="#fb8072" stroke="black" points="630.87,-252 537.13,-252 537.13,-216 630.87,-216 630.87,-252"/>
<text text-anchor="middle" x="584" y="-229.8" font-family="Times,serif" font-size="14.00">IconsModule </text>
</g>
<!-- SharedModule&#45;&gt;IconsModule  -->
<g id="edge6" class="edge">
<title>SharedModule&#45;&gt;IconsModule </title>
<path fill="none" stroke="black" stroke-dasharray="5,2" d="M448.32,-178C507.7,-178 599.56,-178 599.56,-178 599.56,-178 599.56,-205.97 599.56,-205.97"/>
<polygon fill="black" stroke="black" points="596.06,-205.97 599.56,-215.97 603.06,-205.97 596.06,-205.97"/>
</g>
<!-- StateDirective  -->
<g id="node8" class="node">
<title>StateDirective </title>
<polygon fill="#fb8072" stroke="black" points="519.58,-252 420.42,-252 420.42,-216 519.58,-216 519.58,-252"/>
<text text-anchor="middle" x="470" y="-229.8" font-family="Times,serif" font-size="14.00">StateDirective </text>
</g>
<!-- SharedModule&#45;&gt;StateDirective  -->
<g id="edge7" class="edge">
<title>SharedModule&#45;&gt;StateDirective </title>
<path fill="none" stroke="black" stroke-dasharray="5,2" d="M434.21,-187.11C434.21,-187.11 434.21,-205.99 434.21,-205.99"/>
<polygon fill="black" stroke="black" points="430.71,-205.99 434.21,-215.99 437.71,-205.99 430.71,-205.99"/>
</g>
<!-- TableLightComponent  -->
<g id="node9" class="node">
<title>TableLightComponent </title>
<polygon fill="#fb8072" stroke="black" points="402.54,-252 255.46,-252 255.46,-216 402.54,-216 402.54,-252"/>
<text text-anchor="middle" x="329" y="-229.8" font-family="Times,serif" font-size="14.00">TableLightComponent </text>
</g>
<!-- SharedModule&#45;&gt;TableLightComponent  -->
<g id="edge8" class="edge">
<title>SharedModule&#45;&gt;TableLightComponent </title>
<path fill="none" stroke="black" stroke-dasharray="5,2" d="M376.15,-187.11C376.15,-187.11 376.15,-205.99 376.15,-205.99"/>
<polygon fill="black" stroke="black" points="372.65,-205.99 376.15,-215.99 379.65,-205.99 372.65,-205.99"/>
</g>
<!-- TemplatesModule  -->
<g id="node10" class="node">
<title>TemplatesModule </title>
<polygon fill="#fb8072" stroke="black" points="237.86,-252 116.14,-252 116.14,-216 237.86,-216 237.86,-252"/>
<text text-anchor="middle" x="177" y="-229.8" font-family="Times,serif" font-size="14.00">TemplatesModule </text>
</g>
<!-- SharedModule&#45;&gt;TemplatesModule  -->
<g id="edge9" class="edge">
<title>SharedModule&#45;&gt;TemplatesModule </title>
<path fill="none" stroke="black" stroke-dasharray="5,2" d="M349.78,-178C288.68,-178 192.42,-178 192.42,-178 192.42,-178 192.42,-205.97 192.42,-205.97"/>
<polygon fill="black" stroke="black" points="188.92,-205.97 192.42,-215.97 195.92,-205.97 188.92,-205.97"/>
</g>
<!-- TotalPipe  -->
<g id="node11" class="node">
<title>TotalPipe </title>
<polygon fill="#fb8072" stroke="black" points="97.94,-252 24.06,-252 24.06,-216 97.94,-216 97.94,-252"/>
<text text-anchor="middle" x="61" y="-229.8" font-family="Times,serif" font-size="14.00">TotalPipe </text>
</g>
<!-- SharedModule&#45;&gt;TotalPipe  -->
<g id="edge10" class="edge">
<title>SharedModule&#45;&gt;TotalPipe </title>
<path fill="none" stroke="black" stroke-dasharray="5,2" d="M349.49,-169C255.61,-169 61,-169 61,-169 61,-169 61,-205.89 61,-205.89"/>
<polygon fill="black" stroke="black" points="57.5,-205.89 61,-215.89 64.5,-205.89 57.5,-205.89"/>
</g>
</g>
</svg>
