<?xml version="1.0" encoding="UTF-8" standalone="no"?>
<!DOCTYPE svg PUBLIC "-//W3C//DTD SVG 1.1//EN"
 "http://www.w3.org/Graphics/SVG/1.1/DTD/svg11.dtd">
<!-- Generated by graphviz version 2.47.0 (20210316.0004)
 -->
<!-- Title: dependencies Pages: 1 -->
<svg width="1035pt" height="211pt"
 viewBox="0.00 0.00 1035.00 211.00" xmlns="http://www.w3.org/2000/svg" xmlns:xlink="http://www.w3.org/1999/xlink">
<g id="graph0" class="graph" transform="scale(1 1) rotate(0) translate(4 207)">
<title>dependencies</title>
<polygon fill="white" stroke="transparent" points="-4,4 -4,-207 1031,-207 1031,4 -4,4"/>
<text text-anchor="start" x="492.51" y="-42.4" font-family="sans-serif" font-weight="bold" font-size="14.00">Legend</text>
<polygon fill="#ffffb3" stroke="transparent" points="279.5,-10 279.5,-30 299.5,-30 299.5,-10 279.5,-10"/>
<text text-anchor="start" x="303.13" y="-15.4" font-family="sans-serif" font-size="14.00"> &#160;Declarations</text>
<polygon fill="#8dd3c7" stroke="transparent" points="392.5,-10 392.5,-30 412.5,-30 412.5,-10 392.5,-10"/>
<text text-anchor="start" x="416.23" y="-15.4" font-family="sans-serif" font-size="14.00"> &#160;Module</text>
<polygon fill="#80b1d3" stroke="transparent" points="478.5,-10 478.5,-30 498.5,-30 498.5,-10 478.5,-10"/>
<text text-anchor="start" x="502.28" y="-15.4" font-family="sans-serif" font-size="14.00"> &#160;Bootstrap</text>
<polygon fill="#fdb462" stroke="transparent" points="575.5,-10 575.5,-30 595.5,-30 595.5,-10 575.5,-10"/>
<text text-anchor="start" x="599.17" y="-15.4" font-family="sans-serif" font-size="14.00"> &#160;Providers</text>
<polygon fill="#fb8072" stroke="transparent" points="671.5,-10 671.5,-30 691.5,-30 691.5,-10 671.5,-10"/>
<text text-anchor="start" x="695.23" y="-15.4" font-family="sans-serif" font-size="14.00"> &#160;Exports</text>
<g id="clust1" class="cluster">
<title>cluster_OrdersModule</title>
<polygon fill="none" stroke="black" stroke-dasharray="1,5" points="8,-70 8,-195 1019,-195 1019,-70 8,-70"/>
</g>
<g id="clust7" class="cluster">
<title>cluster_OrdersModule_imports</title>
<polygon fill="none" stroke="black" points="736,-78 736,-130 1011,-130 1011,-78 736,-78"/>
</g>
<g id="clust2" class="cluster">
<title>cluster_OrdersModule_declarations</title>
<polygon fill="none" stroke="black" points="16,-78 16,-130 728,-130 728,-78 16,-78"/>
</g>
<!-- FormOrderComponent -->
<g id="node1" class="node">
<title>FormOrderComponent</title>
<polygon fill="#ffffb3" stroke="black" points="720.31,-122 575.69,-122 575.69,-86 720.31,-86 720.31,-122"/>
<text text-anchor="middle" x="648" y="-99.8" font-family="Times,serif" font-size="14.00">FormOrderComponent</text>
</g>
<!-- OrdersModule -->
<g id="node5" class="node">
<title>OrdersModule</title>
<polygon fill="#8dd3c7" stroke="black" points="609.64,-187 606.64,-191 585.64,-191 582.64,-187 512.36,-187 512.36,-151 609.64,-151 609.64,-187"/>
<text text-anchor="middle" x="561" y="-164.8" font-family="Times,serif" font-size="14.00">OrdersModule</text>
</g>
<!-- FormOrderComponent&#45;&gt;OrdersModule -->
<g id="edge1" class="edge">
<title>FormOrderComponent&#45;&gt;OrdersModule</title>
<path fill="none" stroke="black" d="M592.83,-122.11C592.83,-122.11 592.83,-140.99 592.83,-140.99"/>
<polygon fill="black" stroke="black" points="589.33,-140.99 592.83,-150.99 596.33,-140.99 589.33,-140.99"/>
</g>
<!-- PageAddOrderComponent -->
<g id="node2" class="node">
<title>PageAddOrderComponent</title>
<polygon fill="#ffffb3" stroke="black" points="557.79,-122 392.21,-122 392.21,-86 557.79,-86 557.79,-122"/>
<text text-anchor="middle" x="475" y="-99.8" font-family="Times,serif" font-size="14.00">PageAddOrderComponent</text>
</g>
<!-- PageAddOrderComponent&#45;&gt;OrdersModule -->
<g id="edge2" class="edge">
<title>PageAddOrderComponent&#45;&gt;OrdersModule</title>
<path fill="none" stroke="black" d="M534.91,-122.11C534.91,-122.11 534.91,-140.99 534.91,-140.99"/>
<polygon fill="black" stroke="black" points="531.41,-140.99 534.91,-150.99 538.41,-140.99 531.41,-140.99"/>
</g>
<!-- PageEditOrderComponent -->
<g id="node3" class="node">
<title>PageEditOrderComponent</title>
<polygon fill="#ffffb3" stroke="black" points="374.02,-122 209.98,-122 209.98,-86 374.02,-86 374.02,-122"/>
<text text-anchor="middle" x="292" y="-99.8" font-family="Times,serif" font-size="14.00">PageEditOrderComponent</text>
</g>
<!-- PageEditOrderComponent&#45;&gt;OrdersModule -->
<g id="edge3" class="edge">
<title>PageEditOrderComponent&#45;&gt;OrdersModule</title>
<path fill="none" stroke="black" d="M292,-122.02C292,-139.37 292,-163 292,-163 292,-163 502.29,-163 502.29,-163"/>
<polygon fill="black" stroke="black" points="502.29,-166.5 512.29,-163 502.29,-159.5 502.29,-166.5"/>
</g>
<!-- PageListOrdersComponent -->
<g id="node4" class="node">
<title>PageListOrdersComponent</title>
<polygon fill="#ffffb3" stroke="black" points="192.41,-122 23.59,-122 23.59,-86 192.41,-86 192.41,-122"/>
<text text-anchor="middle" x="108" y="-99.8" font-family="Times,serif" font-size="14.00">PageListOrdersComponent</text>
</g>
<!-- PageListOrdersComponent&#45;&gt;OrdersModule -->
<g id="edge4" class="edge">
<title>PageListOrdersComponent&#45;&gt;OrdersModule</title>
<path fill="none" stroke="black" d="M108,-122.28C108,-143.32 108,-175 108,-175 108,-175 502.09,-175 502.09,-175"/>
<polygon fill="black" stroke="black" points="502.09,-178.5 512.09,-175 502.09,-171.5 502.09,-178.5"/>
</g>
<!-- OrdersRoutingModule -->
<g id="node6" class="node">
<title>OrdersRoutingModule</title>
<polygon fill="#8dd3c7" stroke="black" points="1003.25,-122 1000.25,-126 979.25,-126 976.25,-122 860.75,-122 860.75,-86 1003.25,-86 1003.25,-122"/>
<text text-anchor="middle" x="932" y="-99.8" font-family="Times,serif" font-size="14.00">OrdersRoutingModule</text>
</g>
<!-- OrdersRoutingModule&#45;&gt;OrdersModule -->
<g id="edge5" class="edge">
<title>OrdersRoutingModule&#45;&gt;OrdersModule</title>
<path fill="none" stroke="black" d="M932,-122.28C932,-143.32 932,-175 932,-175 932,-175 619.88,-175 619.88,-175"/>
<polygon fill="black" stroke="black" points="619.88,-171.5 609.88,-175 619.88,-178.5 619.88,-171.5"/>
</g>
<!-- SharedModule -->
<g id="node7" class="node">
<title>SharedModule</title>
<polygon fill="#8dd3c7" stroke="black" points="842.42,-122 839.42,-126 818.42,-126 815.42,-122 743.58,-122 743.58,-86 842.42,-86 842.42,-122"/>
<text text-anchor="middle" x="793" y="-99.8" font-family="Times,serif" font-size="14.00">SharedModule</text>
</g>
<!-- SharedModule&#45;&gt;OrdersModule -->
<g id="edge6" class="edge">
<title>SharedModule&#45;&gt;OrdersModule</title>
<path fill="none" stroke="black" d="M793,-122.02C793,-139.37 793,-163 793,-163 793,-163 619.92,-163 619.92,-163"/>
<polygon fill="black" stroke="black" points="619.92,-159.5 609.92,-163 619.92,-166.5 619.92,-159.5"/>
</g>
</g>
</svg>
