<?xml version="1.0" encoding="UTF-8" standalone="no"?>
<!DOCTYPE svg PUBLIC "-//W3C//DTD SVG 1.1//EN"
 "http://www.w3.org/Graphics/SVG/1.1/DTD/svg11.dtd">
<!-- Generated by graphviz version 2.47.0 (20210316.0004)
 -->
<!-- Title: dependencies Pages: 1 -->
<svg width="878pt" height="211pt"
 viewBox="0.00 0.00 878.00 211.00" xmlns="http://www.w3.org/2000/svg" xmlns:xlink="http://www.w3.org/1999/xlink">
<g id="graph0" class="graph" transform="scale(1 1) rotate(0) translate(4 207)">
<title>dependencies</title>
<polygon fill="white" stroke="transparent" points="-4,4 -4,-207 874,-207 874,4 -4,4"/>
<text text-anchor="start" x="414.01" y="-42.4" font-family="sans-serif" font-weight="bold" font-size="14.00">Legend</text>
<polygon fill="#ffffb3" stroke="transparent" points="201,-10 201,-30 221,-30 221,-10 201,-10"/>
<text text-anchor="start" x="224.63" y="-15.4" font-family="sans-serif" font-size="14.00"> &#160;Declarations</text>
<polygon fill="#8dd3c7" stroke="transparent" points="314,-10 314,-30 334,-30 334,-10 314,-10"/>
<text text-anchor="start" x="337.73" y="-15.4" font-family="sans-serif" font-size="14.00"> &#160;Module</text>
<polygon fill="#80b1d3" stroke="transparent" points="400,-10 400,-30 420,-30 420,-10 400,-10"/>
<text text-anchor="start" x="423.78" y="-15.4" font-family="sans-serif" font-size="14.00"> &#160;Bootstrap</text>
<polygon fill="#fdb462" stroke="transparent" points="497,-10 497,-30 517,-30 517,-10 497,-10"/>
<text text-anchor="start" x="520.67" y="-15.4" font-family="sans-serif" font-size="14.00"> &#160;Providers</text>
<polygon fill="#fb8072" stroke="transparent" points="593,-10 593,-30 613,-30 613,-10 593,-10"/>
<text text-anchor="start" x="616.73" y="-15.4" font-family="sans-serif" font-size="14.00"> &#160;Exports</text>
<g id="clust1" class="cluster">
<title>cluster_ClientsModule</title>
<polygon fill="none" stroke="black" stroke-dasharray="1,5" points="8,-70 8,-195 862,-195 862,-70 8,-70"/>
</g>
<g id="clust6" class="cluster">
<title>cluster_ClientsModule_imports</title>
<polygon fill="none" stroke="black" points="578,-78 578,-130 854,-130 854,-78 578,-78"/>
</g>
<g id="clust2" class="cluster">
<title>cluster_ClientsModule_declarations</title>
<polygon fill="none" stroke="black" points="16,-78 16,-130 570,-130 570,-78 16,-78"/>
</g>
<!-- PageAddClientComponent -->
<g id="node1" class="node">
<title>PageAddClientComponent</title>
<polygon fill="#ffffb3" stroke="black" points="562.37,-122 395.63,-122 395.63,-86 562.37,-86 562.37,-122"/>
<text text-anchor="middle" x="479" y="-99.8" font-family="Times,serif" font-size="14.00">PageAddClientComponent</text>
</g>
<!-- ClientsModule -->
<g id="node4" class="node">
<title>ClientsModule</title>
<polygon fill="#8dd3c7" stroke="black" points="528.72,-187 525.72,-191 504.72,-191 501.72,-187 429.28,-187 429.28,-151 528.72,-151 528.72,-187"/>
<text text-anchor="middle" x="479" y="-164.8" font-family="Times,serif" font-size="14.00">ClientsModule</text>
</g>
<!-- PageAddClientComponent&#45;&gt;ClientsModule -->
<g id="edge1" class="edge">
<title>PageAddClientComponent&#45;&gt;ClientsModule</title>
<path fill="none" stroke="black" d="M479,-122.11C479,-122.11 479,-140.99 479,-140.99"/>
<polygon fill="black" stroke="black" points="475.5,-140.99 479,-150.99 482.5,-140.99 475.5,-140.99"/>
</g>
<!-- PageEditClientComponent -->
<g id="node2" class="node">
<title>PageEditClientComponent</title>
<polygon fill="#ffffb3" stroke="black" points="378.1,-122 211.9,-122 211.9,-86 378.1,-86 378.1,-122"/>
<text text-anchor="middle" x="295" y="-99.8" font-family="Times,serif" font-size="14.00">PageEditClientComponent</text>
</g>
<!-- PageEditClientComponent&#45;&gt;ClientsModule -->
<g id="edge2" class="edge">
<title>PageEditClientComponent&#45;&gt;ClientsModule</title>
<path fill="none" stroke="black" d="M295,-122.02C295,-139.37 295,-163 295,-163 295,-163 419.21,-163 419.21,-163"/>
<polygon fill="black" stroke="black" points="419.21,-166.5 429.21,-163 419.21,-159.5 419.21,-166.5"/>
</g>
<!-- PageListClientsComponent -->
<g id="node3" class="node">
<title>PageListClientsComponent</title>
<polygon fill="#ffffb3" stroke="black" points="193.99,-122 24.01,-122 24.01,-86 193.99,-86 193.99,-122"/>
<text text-anchor="middle" x="109" y="-99.8" font-family="Times,serif" font-size="14.00">PageListClientsComponent</text>
</g>
<!-- PageListClientsComponent&#45;&gt;ClientsModule -->
<g id="edge3" class="edge">
<title>PageListClientsComponent&#45;&gt;ClientsModule</title>
<path fill="none" stroke="black" d="M109,-122.28C109,-143.32 109,-175 109,-175 109,-175 419.1,-175 419.1,-175"/>
<polygon fill="black" stroke="black" points="419.1,-178.5 429.1,-175 419.1,-171.5 419.1,-178.5"/>
</g>
<!-- ClientsRoutingModule -->
<g id="node5" class="node">
<title>ClientsRoutingModule</title>
<polygon fill="#8dd3c7" stroke="black" points="846.34,-122 843.34,-126 822.34,-126 819.34,-122 701.66,-122 701.66,-86 846.34,-86 846.34,-122"/>
<text text-anchor="middle" x="774" y="-99.8" font-family="Times,serif" font-size="14.00">ClientsRoutingModule</text>
</g>
<!-- ClientsRoutingModule&#45;&gt;ClientsModule -->
<g id="edge4" class="edge">
<title>ClientsRoutingModule&#45;&gt;ClientsModule</title>
<path fill="none" stroke="black" d="M774,-122.28C774,-143.32 774,-175 774,-175 774,-175 538.71,-175 538.71,-175"/>
<polygon fill="black" stroke="black" points="538.71,-171.5 528.71,-175 538.71,-178.5 538.71,-171.5"/>
</g>
<!-- SharedModule -->
<g id="node6" class="node">
<title>SharedModule</title>
<polygon fill="#8dd3c7" stroke="black" points="684.42,-122 681.42,-126 660.42,-126 657.42,-122 585.58,-122 585.58,-86 684.42,-86 684.42,-122"/>
<text text-anchor="middle" x="635" y="-99.8" font-family="Times,serif" font-size="14.00">SharedModule</text>
</g>
<!-- SharedModule&#45;&gt;ClientsModule -->
<g id="edge5" class="edge">
<title>SharedModule&#45;&gt;ClientsModule</title>
<path fill="none" stroke="black" d="M635,-122.02C635,-139.37 635,-163 635,-163 635,-163 538.79,-163 538.79,-163"/>
<polygon fill="black" stroke="black" points="538.79,-159.5 528.79,-163 538.79,-166.5 538.79,-159.5"/>
</g>
</g>
</svg>
